<?xml version="1.0" standalone="no"?>
<!DOCTYPE svg PUBLIC "-//W3C//DTD SVG 20010904//EN"
 "http://www.w3.org/TR/2001/REC-SVG-20010904/DTD/svg10.dtd">
<svg version="1.0" xmlns="http://www.w3.org/2000/svg"
 width="1200.000000pt" height="400.000000pt" viewBox="0 0 1200.000000 400.000000"
 preserveAspectRatio="xMidYMid meet">
<metadata>
Created by potrace 1.15, written by Peter Selinger 2001-2017
</metadata>
<g transform="translate(0.000000,400.000000) scale(0.100000,-0.100000)"
fill="#000000" stroke="none">
<path d="M1186 3750 c-30 -10 -105 -64 -119 -87 -5 -7 -14 -10 -20 -7 -7 4 -9
4 -5 0 8 -10 -14 -36 -25 -29 -4 2 -6 1 -5 -4 2 -5 -10 -22 -25 -38 -26 -28
-87 -115 -113 -160 -83 -144 -137 -324 -159 -530 l-7 -61 53 -45 c144 -123
207 -168 213 -152 5 12 9 13 20 4 14 -12 24 6 41 69 23 81 127 260 195 332
l41 43 -33 -60 c-31 -56 -93 -194 -123 -275 -111 -294 -160 -633 -136 -934 7
-83 19 -180 26 -216 8 -36 16 -81 20 -101 5 -32 57 -197 100 -319 9 -25 38
-90 65 -145 49 -99 49 -100 15 -60 -19 22 -32 41 -29 44 2 2 -4 10 -14 17 -22
15 -125 221 -143 287 -9 33 -18 46 -27 42 -8 -3 -20 -5 -28 -5 -8 0 -22 -8
-32 -18 -39 -38 -195 -157 -204 -154 -5 1 -7 -2 -4 -7 4 -5 1 -11 -6 -13 -16
-6 15 -244 44 -338 26 -82 87 -230 105 -251 7 -8 13 -19 13 -23 0 -4 13 -27
30 -50 16 -24 27 -46 25 -50 -3 -3 -2 -4 1 -2 3 2 29 -23 58 -57 63 -75 147
-144 184 -154 35 -8 367 13 497 33 276 42 584 120 845 214 173 63 184 67 257
101 181 83 187 87 244 174 29 44 57 83 62 86 5 3 7 8 5 10 -1 2 16 42 39 89
67 138 101 240 133 409 26 136 26 162 -3 189 -28 26 -37 28 -37 6 0 -14 -3
-14 -15 -4 -9 7 -17 11 -19 9 -1 -2 -20 -51 -40 -109 -42 -118 -58 -154 -123
-288 -24 -52 -47 -91 -50 -89 -2 3 2 18 10 34 8 15 24 60 37 98 12 39 28 88
36 110 17 52 40 152 66 290 32 174 37 541 9 746 -25 179 -47 297 -67 354 -8
23 -20 63 -28 90 -8 28 -19 65 -24 83 -6 17 -9 32 -6 32 7 0 78 -154 106 -230
44 -118 50 -135 64 -184 7 -27 15 -51 17 -53 2 -2 22 2 43 9 49 16 52 35 30
167 -40 236 -124 446 -250 629 -49 72 -58 79 -137 118 -92 45 -221 100 -314
134 -33 12 -75 29 -93 36 -18 8 -39 14 -46 14 -7 0 -35 9 -62 19 -27 10 -78
27 -114 36 -36 9 -94 25 -130 35 -137 37 -405 85 -560 100 -164 16 -340 21
-374 10z m693 -911 c95 -22 185 -100 216 -189 20 -57 19 -141 -2 -203 -23 -66
-123 -171 -172 -180 -78 -16 -197 1 -268 37 -52 27 -126 116 -142 172 -49 167
55 342 223 373 43 8 72 6 145 -10z m2 -1093 c70 -21 101 -40 152 -91 53 -55
77 -118 76 -202 0 -75 -25 -135 -79 -190 -69 -72 -110 -88 -215 -87 -83 0 -95
3 -153 34 -138 74 -196 214 -148 358 26 78 111 157 196 183 41 12 122 10 171
-5z"/>
<path d="M3410 2680 c0 -5 -11 -10 -25 -10 l-25 0 0 -705 0 -705 80 0 80 0 0
-75 0 -75 310 0 c200 0 310 4 310 10 0 6 11 10 25 10 24 0 25 2 25 65 l0 65
50 0 50 0 0 -75 0 -75 550 0 c360 0 550 3 550 10 0 6 11 10 25 10 24 0 25 2
25 65 l0 65 49 0 c30 0 51 5 54 13 4 9 6 9 6 0 1 -9 23 -13 76 -13 l75 0 0
-75 0 -75 550 0 c360 0 550 3 550 10 0 6 11 10 25 10 24 0 25 2 25 65 l0 65
49 0 c30 0 51 5 54 13 4 9 6 9 6 0 1 -9 23 -13 76 -13 l75 0 0 -75 0 -75 550
0 c360 0 550 3 550 10 0 6 11 10 25 10 24 0 25 2 25 65 l0 65 55 0 55 0 0 -75
0 -75 310 0 c200 0 310 4 310 10 0 6 11 10 25 10 24 0 25 2 25 65 l0 65 55 0
55 0 0 -75 0 -75 309 0 c238 0 310 3 314 13 4 10 6 10 6 0 1 -17 1091 -19
1091 -3 0 6 11 10 25 10 24 0 25 2 25 65 l0 65 55 0 c30 0 55 5 55 10 0 6 11
10 25 10 24 0 25 2 25 70 l0 70 50 0 c28 0 50 5 50 10 0 6 11 10 25 10 l25 0
0 390 0 390 -75 0 -75 0 0 80 0 80 -80 0 -80 0 0 80 0 80 -75 0 -75 0 0 75 0
75 -550 0 c-360 0 -550 -3 -550 -10 0 -5 -11 -10 -25 -10 -24 0 -25 -2 -25
-65 l0 -65 -55 0 -55 0 0 75 0 75 -625 0 c-410 0 -625 -3 -625 -10 0 -5 -11
-10 -25 -10 -24 0 -25 -2 -25 -65 l0 -65 -55 0 -55 0 0 75 0 75 -545 0 c-357
0 -545 -3 -545 -10 0 -5 -11 -10 -25 -10 -24 0 -25 -2 -25 -65 l0 -65 -135 0
-135 0 0 75 0 75 -545 0 c-357 0 -545 -3 -545 -10 0 -5 -11 -10 -25 -10 -24 0
-25 -2 -25 -65 l0 -65 -135 0 -135 0 0 75 0 75 -545 0 c-357 0 -545 -3 -545
-10 0 -5 -11 -10 -25 -10 -24 0 -25 -2 -25 -65 l0 -65 -50 0 -50 0 0 75 0 75
-315 0 c-203 0 -315 -4 -315 -10z m420 -705 l0 -535 -130 0 -130 0 0 535 0
535 130 0 130 0 0 -535z m1240 460 l0 -75 80 0 80 0 0 -70 0 -70 -130 0 -130
0 0 80 0 80 -235 0 c-150 0 -235 -4 -235 -10 0 -5 -11 -10 -25 -10 l-25 0 0
-160 0 -160 310 0 310 0 0 -75 0 -75 80 0 80 0 0 -145 0 -145 -55 0 c-30 0
-55 -4 -55 -10 0 -5 -11 -10 -25 -10 -24 0 -25 -2 -25 -70 l0 -70 -360 0 -360
0 0 80 0 80 -80 0 -80 0 0 65 0 65 130 0 130 0 0 -80 0 -80 235 0 c150 0 235
4 235 10 0 6 11 10 25 10 l25 0 0 160 0 160 -310 0 -310 0 0 80 0 80 -80 0
-80 0 0 145 0 145 55 0 c30 0 55 5 55 10 0 6 11 10 25 10 24 0 25 2 25 65 l0
65 360 0 360 0 0 -75z m1410 0 l0 -75 80 0 80 0 0 -70 0 -70 -130 0 -130 0 0
80 0 80 -235 0 c-150 0 -235 -4 -235 -10 0 -5 -11 -10 -25 -10 l-25 0 0 -395
0 -395 235 0 c150 0 235 4 235 10 0 6 11 10 25 10 24 0 25 2 25 70 l0 70 130
0 130 0 0 -65 0 -65 -55 0 c-30 0 -55 -4 -55 -10 0 -5 -11 -10 -25 -10 -24 0
-25 -2 -25 -70 l0 -70 -360 0 -360 0 0 80 0 80 -80 0 -80 0 0 380 0 380 55 0
c30 0 55 5 55 10 0 6 11 10 25 10 24 0 25 2 25 65 l0 65 360 0 360 0 0 -75z
m1410 0 l0 -75 80 0 80 0 0 -380 0 -380 -55 0 c-30 0 -55 -4 -55 -10 0 -5 -11
-10 -25 -10 -24 0 -25 -2 -25 -70 l0 -70 -360 0 -360 0 0 80 0 80 -80 0 -80 0
0 380 0 380 55 0 c30 0 55 5 55 10 0 6 11 10 25 10 24 0 25 2 25 65 l0 65 360
0 360 0 0 -75z m1410 0 l0 -75 80 0 80 0 0 -145 0 -145 -55 0 c-30 0 -55 -4
-55 -10 0 -5 -11 -10 -25 -10 -25 0 -25 -1 -25 -80 l0 -80 80 0 80 0 0 -225 0
-225 -130 0 -130 0 0 235 0 235 -235 0 c-150 0 -235 -4 -235 -10 0 -5 -11 -10
-25 -10 l-25 0 0 -225 0 -225 -130 0 -130 0 0 535 0 535 440 0 440 0 0 -75z
m1260 0 l0 -75 75 0 75 0 0 -80 0 -80 80 0 80 0 0 -225 0 -225 -55 0 c-30 0
-55 -4 -55 -10 0 -5 -11 -10 -25 -10 -24 0 -25 -2 -25 -65 l0 -65 -50 0 c-27
0 -50 -4 -50 -10 0 -5 -11 -10 -25 -10 -24 0 -25 -2 -25 -70 l0 -70 -365 0
-365 0 0 535 0 535 365 0 365 0 0 -75z"/>
<path d="M7320 2370 c0 -5 -11 -10 -25 -10 l-25 0 0 -395 0 -395 235 0 c150 0
235 4 235 10 0 6 11 10 25 10 l25 0 0 395 0 395 -235 0 c-150 0 -235 -4 -235
-10z"/>
<path d="M8730 2370 c0 -5 -11 -10 -25 -10 l-25 0 0 -160 0 -160 235 0 c150 0
235 4 235 10 0 6 11 10 25 10 l25 0 0 160 0 160 -235 0 c-150 0 -235 -4 -235
-10z"/>
<path d="M10140 2370 c0 -5 -11 -10 -25 -10 l-25 0 0 -395 0 -395 155 0 c97 0
155 4 155 10 0 6 11 10 25 10 24 0 25 2 25 70 l0 70 55 0 c30 0 55 5 55 10 0
6 11 10 25 10 l25 0 0 235 0 235 -80 0 -80 0 0 80 0 80 -155 0 c-97 0 -155 -4
-155 -10z"/>
</g>
</svg>
