<?xml version="1.0" standalone="no"?>
<!DOCTYPE svg PUBLIC "-//W3C//DTD SVG 20010904//EN"
 "http://www.w3.org/TR/2001/REC-SVG-20010904/DTD/svg10.dtd">
<svg version="1.0" xmlns="http://www.w3.org/2000/svg"
 width="2560.000000pt" height="1440.000000pt" viewBox="0 0 2560.000000 1440.000000"
 preserveAspectRatio="xMidYMid meet">
<metadata>
Created by potrace 1.15, written by Peter Selinger 2001-2017
</metadata>
<g transform="translate(0.000000,1440.000000) scale(0.100000,-0.100000)"
fill="#000000" stroke="none">
<path d="M0 7200 l0 -7200 5575 0 c4936 0 5575 2 5575 15 0 8 5 15 11 15 6 0
9 -7 5 -15 -5 -13 839 -15 7214 -15 l7220 0 0 2817 c0 1931 -3 2820 -11 2829
-7 8 -7 14 0 19 8 4 11 1355 11 4371 l0 4364 -7889 0 c-7504 0 -7890 -1 -7900
-17 -8 -15 -13 -16 -29 -6 -17 10 -19 8 -20 -18 -1 -32 9 -37 28 -14 7 8 16
15 21 15 12 0 11 -51 -1 -70 -8 -13 -10 -12 -10 3 0 9 -4 17 -10 17 -5 0 -10
-9 -10 -19 0 -23 -22 -40 -28 -23 -2 7 -8 12 -13 12 -6 0 -6 -8 1 -19 13 -26
13 -31 -5 -31 -8 0 -15 5 -15 10 0 6 -7 10 -15 10 -26 0 -16 30 15 48 32 18
39 32 15 32 -20 0 -19 29 2 52 9 10 11 18 5 18 -6 0 -14 -5 -17 -10 -4 -6 -11
-8 -16 -5 -5 4 -9 -10 -9 -29 0 -43 -14 -53 -37 -27 -9 11 -21 17 -26 14 -4
-3 1 -16 13 -28 12 -13 19 -28 16 -33 -3 -6 1 -18 10 -26 26 -27 11 -46 -31
-39 -25 4 -40 2 -45 -7 -4 -7 -12 -10 -18 -6 -13 8 -23 46 -11 46 4 0 6 7 3
15 -4 9 1 18 10 21 15 6 15 8 1 24 -8 9 -15 25 -14 36 3 33 -1 54 -11 54 -5 0
-7 -6 -5 -12 3 -7 1 -19 -4 -27 -7 -12 -13 -12 -24 -3 -17 15 -27 6 -27 -24 0
-17 -7 -24 -30 -29 -21 -5 -30 -13 -30 -26 0 -14 -7 -19 -30 -19 -49 0 -33 31
23 44 18 4 27 13 27 27 0 11 7 22 15 25 22 9 18 23 -4 17 -11 -3 -21 1 -24 9
-2 7 -3 3 -1 -8 2 -12 -3 -27 -11 -34 -10 -9 -15 -9 -15 -1 0 6 -4 11 -10 11
-5 0 -10 -9 -10 -20 0 -22 -20 -26 -38 -8 -9 9 -12 8 -12 -4 0 -9 5 -18 12
-20 6 -2 8 -9 4 -16 -5 -9 -13 -8 -32 4 -35 23 -33 28 21 70 16 13 17 15 3 10
-13 -4 -18 0 -19 17 l0 22 -11 -22 c-13 -27 -36 -30 -54 -6 -7 10 -16 14 -21
9 -4 -4 2 -15 15 -23 27 -19 29 -43 2 -43 -11 0 -20 -5 -20 -11 0 -6 6 -9 13
-6 18 6 47 -11 47 -28 0 -11 -11 -15 -39 -15 -22 0 -46 -3 -55 -6 -13 -5 -15
3 -14 43 0 26 0 60 -1 76 l-1 27 -205 0 c-196 0 -205 -1 -205 -19 0 -30 -19
-35 -26 -6 -9 37 -24 30 -17 -9 5 -33 -9 -57 -22 -36 -3 5 -11 10 -17 10 -6 0
-3 -9 7 -20 13 -14 22 -17 29 -10 18 18 46 12 46 -10 0 -15 -7 -20 -24 -20
-14 0 -28 5 -31 11 -4 6 -13 8 -21 5 -8 -3 -14 -1 -14 4 0 6 -7 10 -15 10 -23
0 -18 28 10 46 19 12 22 18 12 29 -10 11 -15 10 -30 -3 -12 -11 -21 -13 -25
-6 -4 6 -19 14 -35 18 -23 5 -27 3 -27 -15 0 -16 -5 -20 -20 -16 -17 4 -19 2
-13 -21 l6 -25 -26 19 c-31 22 -32 27 -11 48 14 15 13 16 -11 16 -21 0 -25 -4
-23 -22 2 -13 7 -29 11 -35 12 -19 -2 -35 -24 -28 -10 4 -19 2 -19 -3 0 -13
59 -21 66 -10 3 5 15 6 27 2 12 -4 29 -7 37 -8 8 -1 25 -11 37 -23 l23 -23
-27 -13 c-14 -8 -22 -17 -16 -20 5 -3 25 9 45 27 34 31 39 33 80 25 24 -4 46
-8 51 -9 11 0 9 -28 -3 -35 -6 -4 -18 -1 -27 7 -15 12 -16 9 -9 -32 4 -25 7
-53 7 -62 0 -11 8 -18 20 -18 12 0 19 -7 19 -20 0 -13 -7 -20 -20 -20 -11 0
-23 -7 -26 -15 -5 -12 -23 -15 -83 -14 -42 0 -70 3 -63 6 6 2 12 12 12 20 0 9
-6 13 -14 10 -11 -5 -14 4 -14 36 2 101 -2 127 -17 127 -8 0 -15 -4 -15 -10 0
-5 -9 -10 -20 -10 -11 0 -20 6 -20 13 0 9 -2 9 -8 0 -4 -7 -21 -11 -37 -9 -17
2 -36 4 -42 5 -19 2 -16 28 7 51 11 11 15 22 10 25 -6 4 -10 1 -10 -4 0 -6 -4
-11 -10 -11 -14 0 -12 74 2 88 9 9 8 12 -5 12 -9 0 -17 -7 -17 -15 0 -18 -16
-20 -26 -3 -6 9 -10 5 -14 -12 -4 -16 -12 -24 -22 -22 -12 2 -15 -3 -11 -18 6
-23 -4 -25 -30 -6 -16 12 -16 17 -6 34 7 12 22 25 34 30 14 7 0 9 -52 10 -54
0 -73 -4 -77 -14 -5 -12 -10 -13 -28 -3 -21 11 -22 11 -10 -4 19 -23 6 -40
-19 -24 -12 7 -18 19 -15 30 5 21 -19 22 -54 1 l-25 -15 25 5 c19 4 29 0 38
-15 10 -16 10 -20 -2 -25 -8 -3 -19 -3 -25 0 -5 4 -12 2 -16 -3 -3 -5 3 -14
12 -20 15 -9 16 -12 3 -20 -8 -5 -17 -8 -21 -5 -4 2 -9 -2 -12 -10 -7 -17 15
-15 35 2 8 6 19 8 23 4 5 -4 5 1 2 10 -7 21 31 37 43 18 6 -9 8 -10 12 0 5 15
70 0 76 -18 5 -17 -28 -28 -38 -13 -5 9 -10 3 -14 -15 -5 -18 -3 -30 3 -32 17
-6 14 -62 -4 -62 -8 0 -15 5 -15 10 0 6 -6 10 -12 10 -7 0 -3 -10 9 -22 19
-18 24 -19 38 -8 19 16 41 0 32 -24 -7 -18 -44 -17 -51 1 -3 7 -12 10 -21 7
-8 -3 -15 -1 -15 5 0 6 -7 11 -15 11 -24 0 -17 26 12 46 16 10 23 19 15 22
-16 5 -16 34 1 51 10 11 9 13 -6 7 -10 -3 -22 -6 -26 -6 -4 0 -6 -13 -3 -30 5
-34 -11 -40 -40 -13 -10 9 -21 13 -25 9 -4 -4 3 -15 16 -25 26 -20 21 -41 -10
-41 -11 0 -17 -5 -14 -10 4 -6 11 -7 17 -4 13 8 59 -16 52 -28 -3 -4 -22 -8
-44 -8 -22 0 -40 -5 -43 -13 -4 -10 10 -11 67 -5 44 4 72 4 74 -2 2 -6 16 -7
30 -4 15 4 24 3 20 -1 -5 -5 1 -15 12 -22 23 -16 18 -33 -11 -33 -10 0 -19 -4
-19 -10 0 -5 3 -10 6 -10 13 0 50 25 62 42 21 29 126 20 120 -11 -3 -10 -12
-15 -26 -14 -17 2 -22 -2 -22 -22 0 -18 -5 -25 -20 -25 -24 0 -26 22 -5 40 8
7 15 18 14 24 0 7 -2 6 -6 -1 -2 -7 -17 -13 -31 -14 -15 0 -21 -3 -15 -6 19
-7 16 -43 -3 -50 -10 -4 -22 1 -29 11 -9 11 -15 13 -20 6 -4 -6 4 -19 17 -30
l23 -19 -25 -10 c-14 -5 -20 -11 -15 -12 6 -1 15 -2 20 -4 6 -1 16 -3 23 -3 6
-1 12 -9 12 -17 0 -11 -11 -15 -40 -15 -36 0 -40 -2 -40 -26 0 -23 -3 -26 -25
-22 -22 5 -25 2 -25 -23 0 -16 5 -29 10 -29 6 0 10 6 10 14 0 17 27 29 36 15
3 -6 3 -22 -1 -37 -4 -15 -10 -21 -12 -14 -7 20 -23 14 -23 -9 0 -18 -4 -20
-27 -14 -23 5 -25 4 -13 -10 24 -29 -3 -37 -34 -10 -29 25 -94 36 -80 14 3 -6
15 -9 25 -6 24 6 54 -16 44 -32 -4 -7 -16 -11 -26 -8 -20 5 -26 -7 -9 -18 15
-9 12 -25 -5 -25 -8 0 -15 -4 -15 -10 0 -18 14 -11 44 20 29 31 54 34 119 14
24 -8 16 -27 -14 -34 -15 -4 -25 -14 -27 -28 -4 -27 9 -29 26 -2 7 11 17 20
22 20 13 0 13 -50 0 -70 -8 -13 -10 -12 -10 3 0 9 -4 17 -10 17 -5 0 -10 -9
-10 -21 0 -18 -4 -20 -27 -14 -23 5 -26 4 -15 -6 13 -14 16 -39 5 -39 -5 0
-21 11 -37 25 -16 14 -23 25 -17 25 7 0 24 9 37 19 19 15 21 20 9 25 -19 7
-19 35 0 42 22 9 18 23 -5 17 -14 -4 -20 -14 -20 -32 0 -37 -9 -44 -36 -27
-27 19 -41 8 -14 -11 23 -17 26 -33 6 -33 -8 0 -18 -5 -22 -12 -5 -8 -2 -9 11
-5 20 8 45 -8 45 -30 0 -11 -7 -14 -25 -11 -27 6 -35 -9 -10 -18 21 -8 19 -24
-2 -24 -10 0 -25 -5 -33 -11 -11 -8 -8 -9 15 -4 17 3 35 6 42 7 7 1 10 5 7 10
-3 5 0 16 7 24 10 12 23 14 58 9 25 -4 51 -11 57 -16 6 -5 18 -3 30 6 24 19
54 19 54 1 0 -13 -74 -36 -115 -36 -8 0 -15 -7 -15 -15 0 -8 0 -18 -1 -22 -2
-18 19 -12 24 7 3 11 12 20 21 20 21 0 22 -53 1 -70 -12 -10 -15 -10 -15 4 0
9 -4 16 -9 16 -5 0 -8 -8 -7 -17 1 -13 -6 -18 -22 -17 -14 0 -19 -3 -13 -9 5
-5 7 -16 4 -23 -4 -11 -11 -9 -35 7 l-29 21 32 24 c18 13 28 24 21 24 -14 0
-16 36 -2 45 6 3 10 14 9 23 0 11 -3 12 -6 5 -2 -7 -11 -13 -20 -13 -9 0 -13
-8 -12 -22 5 -39 -9 -52 -37 -33 -13 8 -24 11 -24 6 0 -5 7 -11 15 -15 8 -3
15 -12 15 -21 0 -8 -7 -15 -15 -15 -8 0 -15 -5 -15 -11 0 -5 5 -7 10 -4 14 9
40 -13 40 -32 0 -11 -7 -13 -25 -9 -16 4 -25 2 -25 -5 0 -8 18 -10 60 -5 42 5
60 4 60 -4 0 -7 9 -9 23 -5 21 6 21 6 -3 -14 -14 -11 -31 -18 -38 -16 -8 3
-43 5 -79 5 -66 0 -66 0 -48 20 18 20 18 20 -11 14 l-29 -5 0 81 c0 77 2 83
28 106 23 20 25 24 10 24 -15 0 -18 7 -17 34 1 19 5 39 9 45 3 6 1 11 -4 11
-15 0 -14 33 1 48 8 8 9 12 1 12 -6 0 -9 9 -6 20 3 11 12 20 20 20 8 0 12 4 8
10 -3 5 -11 7 -18 4 -9 -3 -13 15 -14 66 -1 63 0 70 18 70 10 0 19 -7 19 -14
0 -8 11 -26 24 -40 23 -26 46 -34 46 -17 0 5 10 13 22 17 19 6 19 7 5 16 -23
12 -21 24 9 63 17 22 23 41 19 54 -3 10 -1 22 5 26 8 5 8 11 0 20 -5 7 -9 21
-9 31 4 35 -1 52 -13 57 -7 2 -5 3 5 1 27 -4 47 6 47 22 0 8 -11 15 -27 15
-43 3 -155 -1 -180 -6 -25 -4 -25 -4 -25 92 -1 29 -6 44 -17 48 -13 5 -14 7
-1 15 11 7 4 10 -25 11 -22 1 -46 1 -52 0 -16 -2 -17 11 -2 26 7 7 24 7 57 -3
56 -17 67 -9 63 45 -1 22 2 48 8 59 8 14 7 19 -5 19 -7 0 -14 -6 -14 -12 0 -7
-8 -19 -17 -26 -10 -8 -14 -9 -10 -2 4 6 3 14 -3 18 -5 3 -10 -3 -10 -14 0
-23 -22 -41 -28 -23 -2 7 -8 12 -14 12 -6 0 -5 -6 2 -15 22 -27 -3 -38 -29
-14 l-22 21 20 15 c12 8 33 20 47 28 26 13 26 13 -13 12 -21 0 -41 -5 -45 -11
-5 -8 -11 -7 -20 2 -6 6 -19 12 -27 12 -10 0 -7 -7 9 -22 l25 -23 -25 -3 c-39
-6 -49 -22 -13 -22 17 0 36 -7 43 -15 15 -18 16 -17 -40 -19 l-45 -2 2 36 c1
19 0 43 -3 53 -5 16 -199 17 -3885 17 l-3879 0 0 -7200z m8392 7074 c5 -3 7
-11 5 -17 -2 -7 -1 -24 3 -38 8 -28 -7 -65 -17 -41 -8 21 -24 13 -21 -10 2
-19 -1 -23 -22 -21 -14 1 -19 -1 -12 -3 17 -8 15 -34 -2 -34 -20 0 -52 33 -37
38 6 2 11 10 11 17 0 7 10 16 23 20 19 6 19 8 5 12 -20 5 -24 33 -7 50 7 7 3
9 -15 6 -21 -4 -23 -8 -13 -24 14 -23 -3 -45 -27 -36 -17 7 -22 57 -6 57 6 0
10 5 10 11 0 25 32 36 73 27 22 -5 44 -11 49 -14z m993 -34 c-3 -5 4 -6 16 -3
19 5 38 -9 39 -29 0 -4 -22 -6 -50 -3 -39 3 -50 1 -50 -11 0 -10 7 -13 23 -9
15 4 28 1 37 -10 11 -14 10 -17 -8 -22 -20 -5 -32 -23 -14 -23 13 1 42 27 42
38 0 12 37 27 60 24 8 -1 20 8 25 20 13 31 55 37 55 9 0 -16 -6 -21 -27 -21
l-28 -1 28 -15 c16 -9 34 -13 40 -9 7 3 22 12 35 19 16 9 35 11 58 6 19 -5 37
-4 40 1 3 5 18 7 32 5 15 -2 35 -5 45 -5 20 -1 24 -21 3 -21 -7 0 -19 -7 -26
-15 -10 -12 -34 -16 -104 -16 -136 1 -144 -1 -151 -28 -8 -33 2 -38 26 -13 11
13 24 20 30 17 15 -10 10 -61 -7 -75 -8 -8 -14 -9 -13 -4 4 21 -2 35 -11 29
-6 -4 -8 -11 -4 -16 3 -5 0 -16 -6 -25 -11 -12 -14 -12 -26 3 -16 21 -18 10
-4 -17 7 -13 7 -21 -2 -26 -6 -4 -14 -2 -16 4 -2 7 -10 12 -18 12 -22 0 -16
29 11 54 21 19 23 25 10 30 -19 7 -19 20 0 40 8 8 15 21 14 28 0 10 -2 10 -6
1 -2 -7 -17 -13 -31 -14 -15 0 -21 -3 -14 -6 6 -2 12 -18 12 -34 0 -33 -25
-40 -46 -12 -7 10 -15 15 -19 11 -9 -9 26 -56 45 -61 8 -3 1 -5 -17 -6 -17 0
-35 -6 -39 -12 -5 -8 1 -10 18 -6 17 5 30 2 38 -8 15 -18 4 -37 -20 -33 -11 2
-20 -1 -22 -7 -4 -13 38 -19 60 -9 9 4 25 6 35 5 9 -1 17 4 17 12 0 8 9 22 21
33 20 18 21 18 35 0 17 -24 10 -36 -24 -36 -19 0 -23 -3 -15 -11 13 -13 44
-16 171 -18 83 -1 93 -3 90 -18 -3 -12 -12 -17 -29 -16 -19 1 -25 -4 -27 -22
-2 -30 14 -42 21 -15 8 32 37 25 37 -9 0 -17 -4 -33 -10 -36 -5 -3 -10 -1 -10
4 0 6 -4 11 -10 11 -5 0 -10 -9 -10 -19 0 -26 -17 -36 -35 -21 -18 15 -20 -1
-3 -18 8 -8 9 -15 2 -22 -6 -6 -19 -1 -37 16 -15 13 -27 28 -27 31 0 4 3 3 7
0 3 -4 13 2 20 13 8 11 18 18 23 15 5 -3 11 -1 15 5 3 5 -1 10 -9 10 -18 0
-22 35 -6 45 6 3 10 14 9 23 0 11 -3 12 -6 5 -2 -7 -12 -13 -22 -13 -14 0 -16
-7 -13 -35 2 -19 0 -35 -5 -35 -7 0 -44 22 -63 37 -2 2 2 8 10 13 13 8 12 11
-5 24 -23 17 -46 3 -27 -16 7 -7 12 -23 12 -36 0 -13 4 -21 10 -17 13 8 40
-13 40 -30 0 -7 -15 -16 -34 -19 -28 -5 -33 -10 -29 -26 5 -17 0 -20 -27 -20
-43 0 -37 30 8 42 34 9 37 14 22 38 -9 13 -10 13 -10 0 0 -11 -4 -9 -12 5 -12
19 -12 19 -18 -5 -5 -19 -12 -24 -30 -22 -19 2 -21 0 -10 -13 10 -11 10 -19 2
-27 -8 -8 -18 -3 -36 17 -27 29 -33 41 -16 30 6 -3 13 0 16 8 3 8 15 18 27 22
19 6 20 8 5 12 -19 5 -24 38 -8 48 6 3 10 11 10 17 0 7 -4 7 -13 -1 -8 -6 -17
-8 -20 -4 -4 3 -7 -10 -7 -30 0 -43 -18 -49 -51 -16 l-20 20 20 18 c27 23 27
35 1 19 -17 -11 -22 -11 -29 0 -6 10 -10 10 -20 -2 -10 -12 -18 -13 -32 -5
-17 8 -19 6 -19 -21 0 -36 6 -37 31 -7 l19 22 6 -23 c4 -12 19 -29 35 -38 20
-10 29 -22 29 -39 0 -13 5 -27 10 -30 22 -14 10 -35 -20 -35 -35 0 -41 24 -12
46 16 13 16 13 0 14 -10 0 -18 -4 -18 -10 0 -5 -7 -10 -15 -10 -9 0 -12 -6 -9
-15 5 -11 -1 -15 -25 -15 -21 0 -31 5 -31 15 0 16 36 39 49 31 9 -6 21 16 21
37 0 7 -7 3 -15 -7 -13 -17 -15 -18 -15 -3 0 9 -6 17 -14 17 -8 0 -13 -8 -12
-17 1 -13 -6 -18 -21 -17 -18 0 -20 -2 -11 -13 8 -10 8 -17 -2 -26 -10 -9 -13
-9 -17 1 -3 6 -11 12 -19 12 -8 0 -14 6 -14 13 1 17 25 47 39 47 15 0 14 9 -4
27 -14 14 -14 17 0 32 19 21 20 38 2 22 -8 -6 -17 -8 -20 -4 -4 3 -7 -10 -7
-30 0 -41 -23 -51 -46 -20 -7 10 -16 14 -21 10 -4 -5 0 -14 10 -21 22 -17 22
-35 0 -53 -17 -14 -17 -14 0 -9 19 6 47 -14 47 -33 0 -6 -18 -11 -39 -11 -22
0 -45 -2 -53 -5 -11 -4 -14 14 -13 92 0 97 0 98 28 107 41 15 58 -7 21 -28
-25 -13 -26 -15 -8 -16 11 0 30 11 42 24 17 20 27 24 55 19 43 -7 82 25 72 58
-4 11 -1 26 5 34 9 11 9 15 1 15 -7 0 -11 23 -9 70 1 38 -2 73 -6 77 -4 5 -26
9 -49 9 -68 3 -74 4 -52 14 11 5 34 6 52 3 17 -3 39 -1 48 4 19 11 67 5 60 -7z
m-783 -410 c4 -19 5 -46 2 -59 -5 -22 -6 -23 -19 -5 -14 18 -14 18 -15 -3 0
-25 -15 -39 -25 -23 -3 5 -11 10 -18 10 -8 0 -8 -3 1 -12 13 -13 16 -38 5 -38
-5 0 -21 11 -37 25 -20 17 -36 23 -52 19 -19 -5 -24 -2 -24 14 0 30 17 36 37
12 22 -25 28 -25 60 0 19 15 21 20 9 20 -22 0 -21 36 2 49 18 11 4 15 -21 5
-9 -3 -12 -14 -9 -29 6 -34 -21 -42 -47 -16 l-22 22 28 23 c23 20 38 24 83 23
53 -2 54 -2 62 -37z m1037 -39 c21 -14 5 -44 -19 -36 -11 3 -20 2 -20 -3 0
-12 59 -21 66 -10 8 12 54 10 54 -3 0 -6 9 -8 20 -4 12 4 20 2 20 -5 0 -8 -26
-11 -88 -8 -64 2 -94 -1 -105 -10 -9 -8 -24 -11 -34 -8 -15 5 -19 0 -21 -24
-3 -34 12 -40 28 -10 6 11 15 20 19 20 16 0 20 -43 6 -69 -14 -25 -14 -25 -15
-3 0 12 -4 22 -9 22 -5 0 -11 -10 -13 -22 -2 -15 -9 -22 -20 -22 -10 1 -15 -2
-12 -8 3 -5 3 -16 0 -25 -5 -12 -9 -13 -21 -3 -11 9 -18 9 -30 -3 -10 -11 -27
-14 -55 -10 -27 4 -40 2 -40 -6 0 -7 8 -11 18 -10 9 1 19 0 22 -1 18 -7 57 -6
67 2 6 5 19 8 27 6 9 -2 22 8 29 22 7 14 23 26 36 28 19 3 22 0 19 -20 -2 -13
-10 -23 -20 -23 -9 0 -25 -8 -35 -18 -15 -13 -36 -17 -91 -16 -65 1 -73 3 -76
23 -11 50 -13 76 -7 76 4 0 6 20 6 45 0 25 -4 45 -9 45 -5 0 -17 7 -27 16 -12
10 -47 19 -96 24 -76 7 -84 14 -12 10 21 -1 40 3 43 8 6 10 56 4 56 -7 0 -4
20 -5 45 -4 29 2 49 -3 59 -13 14 -14 18 -13 37 5 16 15 31 18 62 15 22 -3 48
-9 57 -14 22 -12 30 -4 30 32 0 29 20 37 49 19z m-1163 -66 c19 -19 8 -38 -17
-32 -12 3 -19 0 -19 -9 0 -8 5 -14 10 -14 19 0 10 -18 -12 -24 -19 -5 -20 -8
-8 -15 10 -7 18 -4 29 12 23 33 44 46 66 41 14 -3 23 2 30 18 13 31 45 37 45
9 0 -15 -6 -21 -22 -21 -23 0 -22 -1 2 -13 24 -12 25 -17 25 -100 0 -84 0 -87
-22 -87 -30 0 -30 -17 0 -23 12 -2 1 -4 -26 -3 -26 1 -47 6 -46 11 0 6 9 9 20
8 11 -2 19 3 19 12 0 8 9 20 20 27 21 14 27 43 10 53 -5 3 -10 -2 -10 -13 0
-26 -11 -34 -27 -20 -12 10 -13 7 -8 -15 9 -34 -2 -34 -39 -2 -16 14 -24 25
-17 25 6 0 23 7 37 16 23 15 23 17 7 29 -17 13 -17 14 0 32 20 23 23 40 4 24
-8 -6 -17 -8 -20 -4 -4 3 -7 -10 -7 -30 0 -40 -17 -49 -40 -22 -7 8 -17 12
-22 9 -5 -3 0 -13 11 -21 25 -17 27 -33 6 -33 -8 0 -15 -5 -15 -11 0 -5 5 -7
10 -4 13 8 40 -13 40 -31 0 -8 -9 -14 -20 -14 -12 0 -20 -7 -20 -16 0 -12 -7
-15 -25 -12 -21 4 -25 1 -25 -18 0 -27 15 -32 24 -9 10 28 26 15 26 -22 0 -29
-3 -34 -12 -25 -18 18 -28 15 -28 -9 0 -17 -5 -20 -21 -16 -17 5 -18 3 -8 -9
9 -11 9 -18 2 -25 -8 -8 -18 -4 -34 12 l-22 22 26 22 c19 17 23 25 14 34 -9 9
-8 16 1 31 16 26 15 35 -1 21 -8 -6 -16 -9 -18 -6 -3 2 -6 -8 -7 -23 -3 -39
-17 -47 -41 -21 -16 18 -21 19 -21 7 0 -9 7 -18 15 -22 22 -8 18 -31 -7 -45
l-23 -12 22 5 c27 5 59 -16 49 -33 -5 -7 -23 -10 -47 -7 -23 3 -39 1 -39 -6 0
-6 26 -8 75 -5 41 2 75 1 75 -3 0 -5 10 -6 23 -3 l22 5 -21 -16 c-16 -11 -44
-15 -101 -15 l-80 1 -1 31 c0 17 -6 33 -11 35 -7 2 -7 11 1 25 6 12 11 37 9
55 -1 28 1 32 23 32 14 0 33 10 44 25 16 20 28 25 54 23 l33 -3 1 80 c0 62 -3
83 -15 93 -14 10 -12 12 14 10 25 -3 31 1 34 22 2 21 16 39 29 40 2 0 10 -7
18 -15z m5734 -80 c13 8 80 -5 80 -16 0 -4 -16 -11 -35 -15 -23 -4 -35 -12
-35 -22 0 -12 3 -13 12 -4 7 7 23 11 38 11 16 -1 19 -3 8 -6 -10 -2 -18 -14
-18 -25 0 -14 -5 -18 -15 -14 -10 4 -15 -1 -15 -14 0 -11 -5 -20 -12 -20 -6 0
-8 -3 -5 -6 4 -4 13 -2 21 5 9 7 15 8 18 2 1 -6 22 -13 44 -17 39 -6 42 -4 46
20 3 14 2 23 -3 21 -4 -3 -10 -1 -13 4 -4 5 -2 12 4 16 15 9 12 25 -6 25 -14
0 -14 2 1 16 9 10 14 25 12 35 -3 12 2 20 13 24 24 8 171 13 188 8 7 -3 12
-24 12 -55 0 -39 -3 -49 -14 -45 -8 3 -17 -1 -20 -10 -4 -9 -13 -13 -22 -9 -8
3 -12 2 -9 -4 3 -5 19 -7 35 -3 26 5 30 2 30 -16 0 -15 -6 -21 -22 -21 -32 0
-17 -9 22 -14 19 -2 36 -9 38 -16 4 -10 6 -10 12 0 10 16 126 18 141 3 9 -9
16 -9 25 -2 14 11 34 4 34 -12 0 -5 -7 -9 -16 -9 -8 0 -12 -5 -8 -11 4 -7 15
-2 31 15 13 14 27 26 31 26 26 -1 36 -36 25 -89 -3 -20 -6 -22 -14 -10 -7 11
-9 9 -9 -10 0 -18 -4 -22 -20 -18 -11 3 -17 1 -14 -5 3 -5 19 -6 35 -3 23 5
29 3 29 -10 0 -9 -9 -19 -20 -22 -11 -3 -17 -9 -14 -14 3 -5 -11 -9 -32 -9
-32 0 -35 2 -23 16 8 10 15 12 17 5 4 -13 22 -4 22 11 0 6 -3 8 -7 5 -3 -4
-12 -2 -18 3 -9 7 -16 6 -25 -5 -17 -21 -35 -19 -54 8 -9 12 -14 17 -11 10 3
-6 -3 -16 -12 -22 -15 -9 -16 -12 -4 -20 10 -6 0 -9 -33 -9 -31 0 -46 4 -43
11 2 7 11 12 21 12 9 0 21 7 26 15 13 19 12 30 0 30 -5 0 -10 -7 -10 -15 0
-19 -14 -19 -29 -1 -14 16 -1 49 21 60 7 3 0 3 -17 0 -35 -7 -43 -12 -30 -22
16 -11 12 -67 -4 -64 -12 3 -12 1 -1 -13 12 -15 7 -16 -60 -10 -41 3 -76 8
-79 11 -9 8 21 23 36 17 7 -3 13 0 13 6 0 6 -6 11 -14 11 -8 0 -23 8 -32 18
-17 16 -18 16 -11 -1 8 -20 -12 -57 -30 -57 -8 0 -13 14 -14 33 -1 17 -3 24
-6 15 -2 -10 -14 -18 -26 -19 -22 0 -22 0 -1 -9 16 -6 21 -18 22 -50 2 -51 -5
-65 -24 -49 -11 9 -14 7 -14 -9 0 -11 -6 -23 -12 -25 -7 -3 1 -4 17 -4 36 2
43 -26 8 -31 -13 -2 -23 1 -23 7 0 6 -6 8 -13 5 -7 -2 -22 4 -32 16 -10 11
-28 20 -39 19 -18 -1 -18 -2 4 -8 30 -8 39 -38 13 -44 -10 -2 0 -3 22 -1 22 2
47 0 55 -6 10 -7 -11 -9 -70 -9 -51 1 -75 4 -60 8 25 7 25 7 3 13 -13 3 -26 2
-29 -3 -3 -6 -11 -5 -20 2 -10 8 -14 8 -14 0 0 -6 -9 -11 -20 -11 -11 0 -20
-4 -20 -9 0 -10 -31 -18 -105 -27 -51 -5 -75 -18 -60 -31 4 -5 10 -2 12 5 9
23 33 13 33 -14 0 -17 -4 -24 -13 -21 -7 3 -13 -3 -14 -14 -1 -10 3 -18 10
-16 26 5 17 -33 -12 -47 -34 -18 -61 -21 -61 -6 0 6 9 10 20 10 11 0 20 2 20
4 0 2 3 11 6 20 3 9 1 16 -6 16 -6 0 -9 -4 -5 -9 12 -20 -13 -19 -34 0 l-22
20 7 -27 c6 -24 5 -27 -15 -21 -17 4 -21 2 -17 -9 3 -8 1 -14 -4 -14 -6 0 -10
6 -10 13 0 8 -6 14 -14 14 -8 0 -12 -6 -9 -14 6 -15 2 -16 -21 -7 -11 4 -16
19 -16 46 0 26 4 37 11 32 8 -4 8 -1 0 13 -12 24 -11 63 2 81 6 7 30 12 61 12
71 -2 86 0 86 9 0 12 -43 22 -50 12 -3 -5 -28 -10 -56 -13 l-51 -5 0 39 c0 28
3 36 9 26 7 -9 8 -7 3 7 -7 17 -11 39 -14 68 -1 4 -46 7 -100 7 -69 0 -102 4
-108 13 -11 18 -12 66 -1 73 5 3 5 11 -2 19 -31 37 28 103 69 78 13 -8 22 -9
26 -3 3 6 17 7 31 4 25 -6 30 3 26 49 -1 9 3 17 9 17 5 0 8 4 5 9 -3 5 -8 25
-10 44 -4 30 -1 37 17 43 19 6 119 15 155 14 52 -2 215 9 221 16 2 2 19 -6 37
-17 19 -11 38 -18 44 -14z m-8062 -1701 c38 -5 52 -11 53 -23 0 -14 1 -14 7
-1 4 9 23 16 48 17 37 2 42 0 47 -23 2 -13 1 -27 -4 -30 -4 -2 -6 -11 -2 -19
4 -12 -6 -15 -48 -17 l-54 -2 53 -3 c50 -4 52 -5 52 -34 0 -16 -6 -29 -12 -30
-10 0 -10 -2 0 -6 40 -16 -10 -21 -188 -20 l-200 2 0 43 c0 23 4 42 8 42 5 0
7 22 6 49 l-2 49 50 -2 c28 0 52 2 55 7 5 9 60 9 131 1z m9179 -296 c-1 -28
-6 -42 -14 -40 -19 3 -16 -15 3 -22 19 -7 14 -31 -7 -32 -8 0 -24 3 -36 7 -14
5 -23 3 -26 -5 -4 -10 1 -12 14 -9 10 3 19 4 20 2 8 -49 8 -89 -1 -94 -8 -5
-7 -11 1 -21 19 -24 -3 -39 -39 -26 -18 6 -35 6 -45 0 -10 -5 -22 -6 -29 -2
-7 4 -8 3 -4 -4 4 -7 1 -12 -8 -12 -10 0 -13 6 -9 17 5 12 3 14 -8 7 -8 -5
-36 -9 -63 -9 l-48 -1 -2 -66 c0 -36 -4 -69 -8 -73 -4 -4 -21 -3 -37 3 -20 7
-31 8 -31 1 0 -6 -20 -9 -47 -7 l-47 3 0 71 1 71 -36 -6 c-20 -3 -43 -5 -51
-5 -8 1 -32 2 -53 3 l-38 1 3 63 3 62 58 3 c35 2 57 8 58 15 1 7 2 36 4 65 1
29 4 55 7 58 3 2 76 7 163 9 87 3 160 7 162 9 2 1 46 4 97 4 l95 2 -2 -42z
m-4772 -222 c2 -12 3 -32 2 -46 -2 -25 -3 -25 -92 -25 -49 0 -92 2 -95 6 -3 3
-14 3 -25 -2 -19 -7 -19 -8 2 -8 20 -1 22 -6 21 -47 -1 -44 -1 -45 -32 -43
-17 1 -48 1 -69 0 -35 -1 -38 -3 -36 -28 5 -68 3 -71 -52 -71 l-51 -1 6 57 c4
31 7 74 6 95 0 34 2 37 27 37 20 0 24 3 14 9 -8 5 -12 18 -8 30 3 12 1 21 -4
21 -5 0 -9 9 -9 21 0 20 4 20 195 18 189 -2 196 -3 200 -23z m1902 -263 l-5
-48 57 -1 56 0 0 -84 0 -83 -42 1 c-24 0 -77 1 -118 1 l-75 1 0 40 c0 45 -13
52 -90 47 -63 -5 -77 1 -82 32 -6 43 1 51 43 51 l39 0 0 45 0 45 111 0 111 0
-5 -47z m5903 -613 c11 -1 11 -3 2 -7 -10 -4 -10 -8 -1 -19 8 -10 8 -14 0 -14
-6 0 -11 -7 -11 -15 0 -8 -6 -15 -12 -15 -9 0 -8 -3 2 -9 8 -6 18 -7 22 -5 4
3 8 -2 8 -10 0 -9 -7 -16 -15 -16 -8 0 -15 -4 -15 -8 0 -9 47 -8 56 1 4 3 14
3 23 -2 9 -4 77 -8 151 -9 l135 -1 3 -36 c2 -24 0 -35 -7 -30 -15 9 -14 -8 1
-23 20 -20 -4 -35 -35 -23 -19 7 -27 7 -27 0 0 -6 -18 -8 -47 -5 -27 3 -41 3
-32 0 12 -3 16 -15 14 -37 -4 -52 -5 -53 -15 -37 -8 13 -10 12 -10 -2 0 -21
-20 -24 -38 -6 -9 9 -12 8 -12 -5 0 -9 7 -17 15 -17 8 0 15 -8 16 -17 0 -14 2
-13 9 5 12 27 30 29 30 2 0 -14 7 -20 23 -20 20 0 24 -5 25 -35 1 -19 -3 -35
-9 -35 -6 0 -7 -6 -2 -12 4 -7 8 -33 9 -58 1 -33 -4 -51 -20 -68 -17 -19 -17
-22 -3 -16 15 5 17 -2 17 -70 l0 -76 -32 -1 c-18 0 -77 -2 -130 -3 -84 -3 -98
-1 -99 13 0 14 -1 14 -6 1 -3 -8 -10 -18 -16 -21 -5 -4 -9 -20 -9 -35 0 -16
-5 -32 -11 -36 -7 -4 -7 -11 2 -22 11 -13 11 -17 -3 -22 -9 -3 -25 -4 -36 -1
-11 3 -22 1 -25 -3 -3 -4 -25 -7 -50 -7 -25 1 -45 -1 -45 -5 0 -4 -17 -5 -37
-3 -21 2 -44 4 -50 4 -9 1 -13 20 -13 64 0 34 -4 76 -9 94 -5 17 -6 34 -3 38
4 4 7 14 7 23 0 9 11 19 25 22 25 6 25 6 3 12 -13 3 -23 2 -23 -2 0 -4 -8 -6
-17 -4 -10 2 -61 5 -113 7 l-95 3 3 59 c2 33 9 63 15 67 8 5 7 8 -4 8 -13 0
-15 8 -12 38 2 20 4 73 5 117 0 48 5 83 12 87 6 4 31 9 56 10 l45 1 -38 4
c-33 4 -38 7 -34 24 3 10 0 19 -5 19 -6 0 -6 6 2 15 17 21 3 76 -18 73 -14 -3
-17 6 -17 52 0 50 2 55 24 60 20 4 451 4 501 0z m5507 -237 c1 -10 5 -28 8
-39 5 -17 -1 -27 -25 -44 -22 -16 -35 -19 -42 -12 -8 8 -17 8 -30 1 -14 -7
-20 -6 -24 5 -5 14 -9 14 -34 1 -20 -10 -31 -12 -35 -4 -4 6 -13 8 -20 5 -21
-8 -25 19 -12 74 12 50 12 51 47 48 31 -3 35 -7 36 -31 1 -27 14 -53 14 -28 0
7 9 25 20 41 19 27 21 27 57 15 24 -8 39 -20 40 -32z m-191 -144 c11 -9 17 -9
28 1 10 8 21 8 32 2 9 -5 25 -7 34 -5 25 7 39 -82 17 -104 -17 -17 -96 -25
-114 -11 -7 6 -20 5 -33 -2 -11 -6 -26 -7 -33 -3 -6 4 -19 8 -27 8 -10 0 -15
9 -14 25 1 36 8 73 16 85 9 15 77 18 94 4z m353 -10 c13 7 22 8 26 1 3 -6 17
-7 31 -4 23 6 24 5 24 -49 0 -34 -5 -59 -12 -64 -19 -11 -92 -11 -100 1 -4 6
-18 4 -37 -4 -26 -10 -34 -10 -48 1 -9 8 -18 13 -20 12 -20 -15 -33 23 -13 43
5 5 11 21 13 34 5 29 45 42 89 27 17 -5 34 -5 47 2z m-9242 -63 c1 -1 4 -13 6
-27 9 -47 -2 -52 -125 -53 l-113 0 -3 41 -3 42 63 3 c54 3 169 -1 175 -6z
m-7902 -306 c11 9 15 9 15 1 0 -8 5 -9 19 -1 30 16 40 12 47 -15 8 -32 28 -27
32 8 4 32 13 34 37 7 14 -16 16 -23 7 -32 -16 -16 -15 -28 3 -28 8 0 15 5 15
10 0 6 5 10 10 10 17 0 11 -56 -7 -72 -31 -27 -62 -31 -91 -12 -34 23 -47 23
-101 0 -36 -15 -47 -16 -67 -6 -18 10 -27 10 -38 1 -10 -9 -16 -9 -21 -1 -4 6
-13 9 -21 6 -16 -6 -16 -5 -19 47 -2 30 1 37 16 37 12 0 19 7 19 19 0 11 4 22
9 25 16 10 41 -5 41 -25 0 -23 19 -25 25 -4 16 51 14 49 35 30 16 -15 22 -15
35 -5z m411 -15 c4 -8 13 -15 22 -15 13 0 13 -2 -1 -18 -28 -30 -20 -49 8 -22
l25 23 0 -39 c0 -37 -3 -41 -41 -58 -30 -13 -44 -15 -52 -7 -14 14 -47 14 -47
0 0 -8 -4 -8 -14 0 -8 6 -20 10 -27 9 -10 -2 -15 11 -17 45 -2 34 0 47 9 45 7
-2 13 2 14 9 1 38 65 40 65 3 0 -13 5 -17 15 -14 8 4 12 10 9 16 -8 12 3 38
16 38 6 0 13 -7 16 -15z m8607 -1611 c18 -3 59 -5 92 -6 33 0 68 -5 78 -10 43
-22 -1 -82 -51 -69 -15 4 -43 1 -65 -6 -40 -14 -67 -6 -67 21 0 6 -15 18 -33
26 -42 20 -48 68 -6 55 11 -4 34 -9 52 -11z m-3660 -810 c10 -3 13 -17 11 -44
-3 -38 -3 -39 34 -42 30 -2 37 -7 36 -23 -4 -78 -2 -75 -39 -75 -32 0 -35 -2
-35 -30 0 -20 -5 -30 -15 -30 -11 0 -14 -14 -13 -65 1 -65 2 -65 30 -65 21 0
31 -6 37 -22 5 -13 6 -27 3 -32 -2 -5 -5 -18 -6 -30 -1 -17 -6 -20 -28 -18
-16 2 -28 -1 -28 -6 0 -18 -89 -23 -121 -7 -25 13 -29 21 -29 56 0 22 6 47 14
55 15 14 11 50 -7 61 -6 3 -36 6 -69 5 -51 0 -58 2 -58 19 0 10 7 19 15 19 12
0 15 13 15 60 l0 60 35 0 c38 0 40 4 36 83 -2 32 2 39 26 48 15 6 41 12 57 15
16 2 31 6 34 9 7 7 46 6 65 -1z m-6578 -126 c41 0 43 -1 32 -19 -10 -17 -9
-22 6 -30 22 -13 40 -56 30 -72 -5 -7 -9 -32 -10 -56 0 -24 -6 -48 -12 -54
-16 -16 -13 -35 7 -41 19 -6 29 -66 10 -66 -6 0 -8 -13 -3 -36 4 -22 1 -48 -6
-66 -10 -24 -10 -31 0 -38 10 -6 10 -9 1 -15 -17 -10 -18 -6 -21 70 -3 83 -6
90 -26 70 -14 -14 -14 -18 1 -34 9 -10 16 -27 16 -38 0 -24 -23 -46 -36 -35
-5 4 3 -7 17 -23 15 -17 29 -37 32 -45 4 -12 6 -11 6 3 1 18 9 21 28 9 10 -6
9 -13 -1 -33 -8 -17 -10 -32 -5 -42 6 -10 5 -18 -1 -22 -18 -11 -32 6 -25 32
5 21 3 24 -10 19 -9 -3 -21 -6 -26 -6 -6 0 -3 -10 5 -22 9 -12 16 -31 16 -42
0 -16 3 -17 12 -8 7 7 21 12 32 12 19 0 18 -1 -3 -24 -13 -14 -20 -29 -17 -34
7 -11 -19 -24 -28 -15 -3 4 -1 12 5 20 16 19 -10 17 -39 -3 -12 -8 -22 -13
-22 -10 0 16 3 21 12 18 5 -1 7 6 3 18 -5 14 -2 20 9 20 18 0 22 16 6 22 -6 2
-13 23 -15 46 -4 40 -2 43 18 36 21 -6 21 -6 -3 22 -14 16 -29 32 -34 35 -4 4
-3 10 3 13 6 4 11 16 11 27 0 11 5 17 10 14 13 -8 13 1 0 26 -14 25 -25 24
-27 -2 -1 -12 -7 -27 -13 -33 -9 -8 -11 -2 -8 24 2 19 11 41 21 49 10 7 16 19
13 27 -3 7 -1 16 4 19 4 3 11 -1 13 -7 3 -7 6 -8 6 -2 1 6 -10 21 -24 34 -16
15 -25 34 -25 53 0 26 3 29 25 23 18 -5 25 -2 25 8 0 8 -5 18 -10 21 -6 4 -7
11 -4 17 4 6 0 14 -7 19 -12 7 -12 9 0 9 10 0 11 3 2 14 -6 7 -9 20 -6 29 4 8
-2 21 -13 28 -19 14 -28 84 -10 73 5 -3 29 -6 53 -6z m7150 -565 c31 12 69
-59 43 -80 -7 -6 -68 -13 -135 -16 -132 -6 -133 -5 -133 51 0 23 6 29 41 40
22 7 55 10 74 6 19 -3 35 -1 39 5 5 7 15 7 33 0 15 -5 31 -8 38 -6z m-9795
-68 c0 -13 5 -27 10 -30 15 -9 12 -41 -5 -55 -22 -18 -122 -20 -137 -2 -9 10
-9 18 0 33 7 10 12 27 12 37 0 22 26 60 34 51 4 -3 10 -26 15 -50 6 -32 9 -36
10 -16 1 15 6 27 12 27 6 0 8 7 5 16 -9 24 3 35 25 24 11 -6 19 -21 19 -35z
m250 -70 c0 -18 4 -23 16 -18 9 3 14 13 11 24 -3 11 -1 21 3 24 14 9 40 -6 40
-23 0 -9 5 -31 12 -49 10 -26 10 -38 0 -53 -8 -13 -9 -27 -3 -42 9 -22 10 -21
28 20 22 51 45 52 54 2 4 -22 7 -26 8 -12 0 12 6 22 12 22 6 0 8 7 5 16 -9 24
3 35 25 24 10 -6 19 -20 19 -31 0 -11 5 -29 10 -39 21 -39 -36 -83 -79 -61
-12 7 -22 6 -29 -1 -9 -9 -15 -9 -23 -1 -9 9 -16 6 -29 -9 -13 -17 -29 -21
-76 -22 l-59 -1 -2 80 c-1 44 1 97 4 118 8 62 53 89 53 32z m-650 -5 c0 -13 5
-17 20 -13 15 4 19 11 14 25 -5 16 -2 19 18 16 17 -2 24 -10 26 -30 2 -16 8
-28 13 -28 15 0 10 -40 -8 -58 -9 -10 -33 -17 -57 -17 -23 0 -47 -4 -53 -8 -9
-5 -17 1 -25 18 -12 26 0 82 24 112 13 16 28 7 28 -17z m3047 -34 c15 -5 25
-2 32 11 6 10 11 12 11 6 0 -7 8 -13 18 -13 24 0 33 -10 24 -24 -4 -6 -7 -33
-7 -61 0 -38 -4 -50 -17 -53 -13 -3 -16 5 -13 45 1 26 -1 59 -5 73 -8 24 -8
24 -9 3 -1 -13 -6 -23 -11 -23 -7 0 -7 -6 0 -19 13 -25 13 -74 0 -87 -7 -7 -3
-23 11 -49 l21 -40 -6 43 c-6 42 2 53 23 29 6 -9 10 -52 8 -115 -2 -56 0 -105
5 -110 4 -4 3 -25 -3 -46 -6 -21 -7 -45 -3 -54 13 -31 13 -61 -1 -72 -10 -8
-9 -17 5 -45 15 -28 16 -41 7 -64 -9 -24 -7 -33 11 -58 17 -24 19 -33 9 -41
-21 -17 -113 1 -101 19 3 5 10 7 15 4 17 -11 9 4 -17 32 l-26 28 6 -31 c5 -23
2 -35 -10 -45 -16 -13 -17 -11 -10 26 9 48 13 55 32 55 8 0 14 7 14 15 0 14
-12 19 -32 16 -12 -2 -10 17 2 24 6 3 10 2 10 -3 0 -5 9 -12 20 -15 30 -8 24
6 -11 27 -22 13 -28 23 -24 34 4 10 9 25 12 34 3 10 11 14 20 11 13 -5 13 -2
-2 20 -9 15 -21 27 -26 27 -5 0 -7 11 -3 25 4 15 2 25 -5 25 -6 0 -8 7 -4 16
3 9 9 12 12 7 8 -13 41 -24 41 -15 0 5 -5 13 -12 20 -18 18 -18 82 -1 82 11 0
9 7 -6 29 -28 39 -28 81 0 81 20 0 20 1 -5 31 -30 35 -34 54 -8 44 14 -5 15
-4 5 6 -17 17 -16 29 2 29 14 0 14 3 0 24 -9 14 -15 30 -14 38 3 26 -1 39 -11
33 -6 -3 -10 4 -10 17 0 13 3 18 8 12 4 -6 17 -14 29 -18z m2234 -118 c1 -7 3
-29 4 -50 5 -45 -17 -67 -69 -72 -54 -4 -70 13 -72 73 -1 49 0 51 25 51 15 0
32 -5 39 -12 9 -9 12 -9 12 0 0 6 6 9 14 6 8 -3 17 -1 21 5 9 15 25 14 26 -1z
m-1814 -265 c-3 -5 29 -6 70 -5 55 3 78 0 84 -10 7 -10 9 -10 9 0 0 13 36 17
44 4 3 -5 23 -7 44 -5 36 2 40 0 45 -22 2 -14 1 -28 -4 -31 -4 -2 -6 -11 -2
-19 4 -12 -4 -15 -36 -15 -33 0 -39 -3 -34 -16 3 -9 0 -20 -8 -25 -10 -6 -10
-9 -1 -9 6 0 12 -4 12 -10 0 -5 -16 -10 -35 -10 -28 0 -35 -4 -35 -20 0 -17
-7 -19 -56 -19 l-56 1 4 35 4 35 -39 -5 c-48 -7 -47 -6 -49 -50 -1 -32 -4 -35
-37 -41 -41 -6 -48 -1 -60 41 -10 35 -6 43 20 43 10 0 20 3 23 8 4 7 -83 6
-172 -2 -35 -3 -42 -1 -40 13 1 9 -1 29 -6 45 -10 41 4 46 105 39 111 -8 159
1 152 26 -5 19 0 21 50 30 5 0 6 -2 4 -6z m-4787 -312 c0 -4 -7 -17 -16 -29
-9 -13 -13 -26 -10 -29 3 -3 8 2 12 11 9 24 31 19 38 -9 7 -29 0 -48 -15 -40
-5 4 -9 1 -9 -5 0 -18 -53 -33 -73 -20 -14 8 -22 8 -34 -2 -13 -10 -18 -9 -32
7 -9 12 -25 19 -38 17 -13 -2 -23 2 -23 8 0 6 4 9 9 6 5 -3 12 1 15 10 3 8 10
12 16 9 6 -3 10 4 10 17 0 18 2 20 10 8 8 -12 10 -11 10 6 0 45 46 60 53 17
l3 -28 13 31 c10 25 16 30 36 26 14 -2 25 -7 25 -11z m-503 -210 c-3 -9 -8
-25 -13 -36 -6 -16 -3 -15 14 5 20 22 23 23 34 9 7 -9 18 -14 23 -12 6 2 11
-6 11 -16 0 -20 -8 -25 -76 -54 -41 -17 -122 -16 -128 1 -2 7 -17 12 -33 12
-16 0 -29 5 -29 11 0 5 5 7 10 4 6 -3 13 1 16 9 3 9 11 13 17 9 6 -4 8 0 5 9
-4 8 2 22 13 32 11 9 17 21 14 26 -4 6 7 10 25 10 27 0 30 -2 24 -25 -9 -35
12 -32 24 4 8 24 15 28 32 24 14 -4 20 -11 17 -22z m22851 13 c8 -14 10 -14
25 0 9 9 18 12 21 7 3 -5 15 -7 26 -4 11 3 20 0 20 -6 0 -19 -52 -91 -66 -92
-40 -2 -82 0 -103 7 -21 6 -22 11 -17 48 8 46 13 51 55 54 19 1 33 -4 39 -14z
m-16148 -284 c54 -54 22 -105 -61 -95 -24 3 -57 7 -74 8 -16 1 -30 7 -30 14 0
6 -3 15 -7 19 -13 13 -9 34 7 34 8 0 15 5 15 10 0 6 5 10 11 10 5 0 7 -4 4
-10 -10 -16 15 -12 32 6 10 10 25 13 39 10 14 -4 24 -2 24 4 0 16 18 12 40
-10z m-6050 -40 c0 -10 6 -23 14 -27 7 -4 16 -21 20 -38 6 -26 3 -31 -21 -42
-48 -20 -68 -23 -82 -13 -9 5 -22 5 -32 0 -12 -7 -21 -4 -34 10 -13 15 -22 17
-41 10 -20 -8 -24 -6 -24 9 0 11 -12 29 -27 40 -26 19 -27 20 -6 21 38 0 55
-10 42 -26 -9 -11 -8 -14 5 -14 9 0 16 5 16 11 0 5 5 7 10 4 6 -4 9 -3 8 2 -5
14 54 65 68 59 8 -3 14 -15 14 -26 0 -19 2 -20 15 -6 8 8 15 22 15 30 0 9 8
16 20 16 13 0 20 -7 20 -20z m-406 -36 c-4 -15 -2 -24 5 -24 6 0 14 14 18 30
4 23 11 30 29 30 19 0 24 -5 24 -25 0 -25 20 -37 20 -12 1 6 7 1 14 -12 9 -16
15 -20 18 -11 2 8 9 10 17 6 11 -7 11 -10 0 -17 -10 -6 -11 -9 -1 -9 6 0 12
-5 12 -11 0 -5 -4 -8 -9 -5 -5 3 -14 -1 -21 -9 -7 -8 -20 -15 -29 -15 -9 0
-22 -5 -29 -12 -7 -7 -12 -8 -12 -4 0 5 -6 3 -14 -3 -11 -9 -19 -9 -34 0 -16
10 -24 10 -35 1 -11 -10 -17 -9 -27 3 -11 13 -11 23 0 55 7 21 10 46 6 55 -3
9 -2 14 2 11 4 -2 14 -1 22 4 21 13 31 2 24 -26z m19141 -364 c3 -4 13 -6 23
-4 24 6 38 -6 45 -41 9 -49 -4 -60 -75 -61 -77 -2 -93 11 -83 64 4 20 11 40
17 43 15 9 67 9 73 -1z m-11685 -262 c21 -18 30 -35 30 -57 0 -42 -31 -60 -95
-56 -76 4 -77 4 -69 16 3 6 7 31 9 55 2 24 7 50 13 57 19 22 79 14 112 -15z
m12250 2 c6 9 10 10 10 3 0 -6 9 -9 20 -6 18 5 20 0 20 -39 0 -37 -4 -47 -22
-55 -13 -5 -34 -6 -48 -3 -14 4 -34 6 -45 3 -32 -6 -58 29 -50 66 6 30 35 48
55 36 5 -3 10 -1 10 6 0 7 8 5 21 -7 17 -16 22 -16 29 -4z m350 5 c0 -8 7 -15
15 -15 8 0 15 4 15 9 0 23 41 -4 49 -33 7 -27 5 -34 -16 -52 -20 -17 -32 -20
-54 -14 -15 5 -36 6 -46 4 -10 -2 -27 3 -37 11 -17 13 -18 20 -10 52 9 37 17
42 77 52 4 0 7 -6 7 -14z m-820 -67 c0 -6 3 -9 6 -5 4 3 22 0 40 -8 19 -8 34
-10 34 -4 0 5 13 3 29 -5 62 -33 34 -125 -34 -110 -16 4 -37 7 -45 6 -8 0 -25
4 -37 10 -20 10 -23 19 -23 70 0 45 3 58 15 58 8 0 15 -5 15 -12z m627 -40 c7
-6 14 -5 18 2 5 8 11 7 22 -2 9 -7 19 -12 22 -10 3 2 9 -12 13 -30 10 -47 -15
-66 -84 -63 -29 1 -61 6 -70 10 -20 8 -23 40 -8 79 7 20 16 25 42 24 18 0 38
-5 45 -10z m343 -153 c0 -16 16 -20 24 -6 3 4 16 6 30 4 32 -6 45 -71 19 -91
-21 -15 -120 -14 -145 2 -35 21 -16 89 27 99 37 9 45 7 45 -8z m-1046 -30 c29
0 31 -3 34 -39 5 -54 -24 -77 -80 -64 -22 4 -42 6 -46 4 -4 -2 -18 4 -31 14
-23 17 -24 19 -9 56 12 30 23 40 44 45 16 3 35 1 43 -5 7 -6 28 -11 45 -11z
m525 -12 c8 -13 13 -15 19 -6 13 20 52 4 52 -22 0 -13 2 -29 5 -37 11 -29 -13
-43 -77 -43 -50 0 -68 4 -86 21 -22 20 -23 23 -9 57 12 27 22 37 44 40 15 2
31 5 35 6 4 0 12 -7 17 -16z m465 -235 c5 -22 6 -22 19 -4 9 13 16 15 21 8 4
-6 13 -9 20 -6 9 4 15 -8 20 -37 9 -56 -11 -79 -63 -74 -20 2 -48 4 -62 4 -47
1 -62 21 -54 73 7 43 10 47 39 51 17 2 36 5 42 5 7 1 14 -8 18 -20z m-1012
-190 c15 -18 18 -19 14 -5 -5 14 -1 17 22 15 23 -3 28 -9 32 -38 l5 -35 15 30
c21 41 77 53 103 22 18 -21 19 -21 14 -1 -4 19 -2 19 29 10 33 -11 34 -13 34
-62 0 -43 -3 -52 -22 -61 -25 -10 -68 -11 -84 0 -5 3 -16 2 -24 -3 -17 -10
-60 9 -60 27 0 16 -12 17 -29 1 -13 -14 -81 -18 -81 -5 0 4 -10 5 -22 2 -14
-3 -33 2 -47 14 -24 18 -24 21 -12 59 12 35 19 42 45 45 17 2 35 5 39 5 5 1
18 -8 29 -20z m-14438 -342 c3 -13 15 -26 26 -29 17 -4 20 -10 14 -34 -9 -36
-21 -51 -55 -69 -18 -9 -30 -10 -34 -4 -9 14 -45 12 -45 -2 -1 -38 -18 26 -23
84 -4 54 -2 68 10 72 14 6 42 -18 43 -37 0 -19 18 5 24 34 5 26 9 29 20 20 8
-7 17 -22 20 -35z m251 -126 c3 -5 15 -10 26 -10 10 0 19 -4 19 -8 0 -5 14 -7
31 -4 24 4 31 0 36 -16 3 -12 14 -24 25 -28 28 -9 22 -84 -8 -99 -12 -6 -30
-17 -40 -25 -14 -12 -18 -12 -22 -2 -2 7 -14 17 -26 22 -17 6 -27 24 -41 77
-10 37 -22 72 -26 78 -5 5 -9 13 -9 17 0 11 28 10 35 -2z m1140 -130 c3 -10
13 -20 23 -22 11 -2 17 -14 18 -36 2 -46 -43 -80 -106 -77 -59 3 -77 11 -84
41 -8 29 3 76 15 68 5 -3 9 4 9 16 0 31 27 36 49 9 21 -26 19 -27 36 27 4 13
8 14 20 4 8 -6 17 -20 20 -30z m4189 19 c20 -12 36 -28 36 -36 0 -18 25 -44
47 -47 21 -3 36 -53 23 -76 -14 -26 -59 -52 -73 -43 -7 4 -19 8 -27 9 -8 1
-25 2 -37 3 -13 0 -29 15 -42 37 -13 22 -27 34 -35 31 -18 -7 -26 13 -26 66 0
32 5 45 21 56 18 11 23 11 30 -1 7 -10 12 -10 26 5 21 21 15 21 57 -4z m732
-18 c32 -16 40 -17 42 -5 5 21 22 17 22 -6 0 -18 11 -25 33 -21 5 1 5 -4 0
-11 -4 -7 -9 -29 -10 -48 -1 -24 -10 -40 -27 -53 -14 -10 -23 -24 -20 -31 3
-8 -4 -16 -15 -19 -24 -6 -28 -37 -5 -37 8 0 13 -4 10 -9 -3 -4 6 -13 20 -20
25 -11 25 -35 0 -25 -23 9 -16 -43 8 -55 19 -11 19 -11 -6 -6 -19 4 -30 0 -37
-12 -6 -12 -24 -18 -60 -19 -28 -2 -51 1 -51 6 0 5 -12 2 -28 -5 -15 -8 -45
-13 -67 -12 -35 3 -40 6 -48 37 -5 19 -7 53 -5 76 1 23 0 40 -4 38 -4 -2 -9 0
-12 5 -11 18 27 21 47 4 20 -17 20 -17 13 2 -15 39 -15 57 -1 72 8 8 15 23 15
33 0 10 7 26 16 35 14 13 14 18 2 32 -11 14 -11 16 3 11 9 -4 23 2 32 13 9 10
24 19 32 19 8 0 15 5 15 10 0 6 11 8 26 4 19 -5 25 -4 20 5 -10 15 -6 14 40
-8z m-5439 -13 c6 -7 15 -26 21 -43 6 -16 11 -24 11 -17 2 27 21 0 21 -29 0
-39 -27 -66 -97 -98 -18 -8 -23 -19 -23 -48 0 -32 -6 -41 -35 -60 -42 -27 -40
-27 -66 -5 -28 24 -49 66 -55 112 -6 50 12 62 41 26 23 -29 35 -26 35 11 0 17
6 23 21 23 18 0 20 5 18 53 -4 79 17 102 45 50 15 -29 15 -30 31 22 5 18 19
19 32 3z m710 -172 c10 -21 21 -32 29 -29 22 8 17 -57 -6 -87 -16 -21 -26 -25
-64 -23 -27 1 -46 -3 -46 -9 0 -6 -8 -4 -18 5 -10 10 -22 14 -25 11 -9 -9 -27
42 -27 77 0 23 4 29 18 27 11 -2 17 3 17 17 0 27 30 31 48 5 12 -17 16 -18 26
-7 6 8 8 17 5 20 -8 7 4 27 17 27 5 0 17 -15 26 -34z m5233 -131 c7 -8 16 -12
21 -9 5 3 9 0 9 -6 0 -6 4 -9 9 -5 15 9 24 -60 12 -84 -7 -12 -19 -21 -29 -22
-76 -5 -128 -2 -134 6 -9 12 -10 62 -2 92 7 26 39 39 58 24 10 -9 15 -8 20 4
7 19 20 19 36 0z m11372 -647 c3 -26 38 -38 38 -14 0 9 5 16 10 16 6 0 10 -5
10 -10 0 -6 10 -8 24 -4 23 6 24 4 24 -55 0 -46 -3 -61 -14 -61 -8 0 -17 -7
-21 -15 -5 -14 -8 -14 -25 2 -15 14 -21 15 -27 4 -6 -9 -10 -10 -16 -2 -4 7
-19 9 -38 6 -25 -5 -38 -1 -59 20 -32 30 -33 38 -10 84 11 22 26 36 41 38 14
2 27 6 30 8 12 12 30 3 33 -17z m1165 -195 c-2 -77 -2 -78 -30 -81 -15 -2 -34
4 -43 12 -9 9 -20 14 -25 11 -5 -4 -9 -1 -9 4 0 6 -7 11 -17 11 -15 0 -14 2 2
20 9 10 20 34 24 52 6 27 12 33 35 35 16 1 31 4 34 7 3 4 11 6 18 6 9 0 12
-21 11 -77z m-967 47 c0 -11 2 -20 4 -20 2 0 11 -3 20 -6 12 -4 16 0 16 15 0
24 15 28 24 6 3 -8 10 -14 17 -13 17 4 37 -33 21 -39 -9 -4 -5 -13 13 -30 28
-28 33 -45 11 -37 -8 3 -23 -4 -33 -15 -18 -22 -43 -28 -43 -11 0 15 -30 12
-30 -2 0 -8 -5 -6 -10 4 -8 13 -19 15 -45 11 -21 -3 -35 -1 -35 5 0 5 -9 12
-20 15 -11 3 -23 13 -26 22 -7 16 14 94 25 96 25 3 56 10 60 14 12 12 31 3 31
-15z m-1650 -289 c0 -4 24 -6 54 -4 50 3 55 2 58 -18 4 -31 24 -35 33 -7 6 20
8 21 12 5 3 -13 11 -17 24 -14 23 6 25 4 33 -54 5 -37 3 -50 -10 -63 -12 -13
-14 -20 -5 -29 6 -6 11 -15 11 -21 0 -5 -3 -6 -6 -3 -4 3 -17 -2 -31 -12 -19
-16 -36 -18 -91 -15 -51 4 -63 2 -52 -7 13 -9 12 -10 -3 -5 -10 3 -22 6 -27 6
-4 0 -10 10 -14 23 -5 18 -8 19 -16 7 -7 -11 -11 -4 -16 28 -4 25 -12 42 -20
42 -16 0 -8 25 15 51 34 38 39 47 36 72 -2 15 1 27 6 27 5 0 9 -4 9 -9z"/>
<path d="M18040 10210 c0 -5 7 -10 15 -10 9 0 12 -6 8 -16 -4 -12 -14 -14 -34
-10 -28 5 -29 5 -29 -40 0 -28 -4 -43 -10 -39 -5 3 -10 2 -10 -4 0 -5 5 -13
10 -16 16 -10 12 -25 -7 -25 -9 0 -14 -2 -12 -4 7 -8 61 -17 108 -19 41 -2 44
-4 47 -34 3 -24 0 -33 -11 -33 -19 0 -19 -7 1 -28 15 -15 15 -17 -2 -24 -15
-6 -13 -7 6 -3 14 2 30 5 36 5 13 0 26 38 15 44 -4 3 -5 23 -3 45 3 32 8 41
22 41 11 0 21 3 23 8 3 4 -21 6 -54 5 -50 -2 -59 0 -59 15 0 10 -5 23 -12 30
-9 9 -8 12 4 12 10 0 16 8 16 18 0 9 3 25 7 34 5 14 2 16 -14 13 -13 -2 -21 1
-21 10 0 8 -9 19 -20 25 -14 7 -20 7 -20 0z"/>
</g>
</svg>
