<?xml version="1.0" standalone="no"?>
<!DOCTYPE svg PUBLIC "-//W3C//DTD SVG 20010904//EN"
 "http://www.w3.org/TR/2001/REC-SVG-20010904/DTD/svg10.dtd">
<svg version="1.0" xmlns="http://www.w3.org/2000/svg"
 width="1200.000000pt" height="400.000000pt" viewBox="0 0 1200.000000 400.000000"
 preserveAspectRatio="xMidYMid meet">
<metadata>
Created by potrace 1.15, written by Peter Selinger 2001-2017
</metadata>
<g transform="translate(0.000000,400.000000) scale(0.100000,-0.100000)"
fill="#000000" stroke="none">
<path d="M3738 3924 c-4 -3 0 -21 8 -40 12 -29 12 -33 0 -28 -16 6 -77 -23
-89 -42 -4 -7 -14 -11 -22 -8 -8 4 -15 1 -15 -6 0 -9 -10 -11 -30 -6 -48 9
-77 -11 -111 -78 -17 -34 -36 -65 -41 -71 -6 -5 6 23 26 63 20 39 31 72 25 72
-5 0 -45 -16 -87 -36 -170 -78 -327 -129 -361 -117 -9 4 -38 25 -66 48 -27 23
-63 49 -78 59 -16 10 -27 20 -24 22 5 6 97 -58 136 -93 24 -23 91 -33 91 -14
0 10 -77 75 -125 106 -107 69 -240 108 -370 109 -101 1 -176 -5 -185 -14 -3
-3 -36 -13 -75 -23 -207 -52 -383 -195 -480 -388 -58 -115 -69 -167 -70 -331
l0 -148 -25 1 c-24 2 -24 2 -2 6 44 9 20 20 -67 31 -258 35 -560 144 -789 286
-130 81 -226 159 -380 310 -126 124 -134 130 -148 112 -26 -36 -30 -30 176
-222 72 -66 211 -172 280 -212 30 -18 62 -37 70 -42 40 -26 236 -113 324 -145
55 -19 102 -38 105 -41 18 -19 -194 59 -314 116 -212 99 -363 208 -571 412
-72 70 -133 128 -137 128 -11 0 -44 -71 -66 -145 -30 -97 -37 -229 -18 -332
31 -161 92 -275 211 -394 76 -76 78 -79 50 -79 -22 0 -25 3 -14 10 8 5 11 12
7 16 -7 8 -177 73 -189 74 -23 0 -3 -32 29 -49 53 -28 35 -26 -42 5 -36 15
-68 24 -71 21 -11 -11 19 -184 41 -239 91 -225 237 -368 453 -444 35 -12 58
-25 52 -29 -6 -4 -23 -3 -38 1 -15 5 -60 8 -100 9 -57 0 -71 -3 -67 -14 4 -11
-4 -13 -40 -9 -43 5 -45 4 -40 -16 16 -57 85 -172 138 -231 110 -122 239 -198
392 -229 44 -10 91 -19 105 -22 21 -5 15 -12 -60 -61 -47 -30 -116 -71 -155
-90 -113 -58 -341 -131 -371 -119 -7 3 -16 1 -20 -5 -3 -6 -12 -8 -20 -5 -8 3
-14 1 -14 -4 0 -6 -5 -10 -11 -10 -5 0 -7 5 -4 10 4 6 -45 10 -139 10 -130 0
-173 -8 -133 -23 6 -3 -12 -3 -40 0 -91 10 -69 -12 92 -93 202 -102 335 -149
555 -195 128 -26 147 -28 400 -28 241 0 276 3 385 25 196 40 354 89 479 151
26 14 55 22 63 19 9 -4 11 -2 7 6 -5 8 -2 9 10 5 10 -4 15 -3 11 3 -3 5 13 19
36 30 127 65 302 196 423 316 172 172 292 335 397 540 38 74 69 129 69 122 0
-16 -76 -170 -117 -238 -16 -25 -37 -60 -48 -79 -40 -67 -169 -228 -249 -309
-77 -80 -209 -195 -270 -237 -57 -40 -112 -75 -159 -101 -26 -15 -45 -29 -43
-31 2 -2 30 10 62 28 521 291 883 778 1019 1369 32 141 44 233 52 406 6 141 7
144 32 160 39 26 176 160 248 244 36 41 69 76 74 76 5 1 14 2 19 3 6 0 10 8
10 16 0 8 6 15 13 15 7 0 22 22 34 49 18 44 19 52 7 87 -8 22 -14 47 -14 56 0
9 -9 20 -20 23 -11 3 -20 15 -20 26 0 10 -6 19 -12 19 -7 1 0 6 16 13 16 7 44
12 62 12 26 -1 34 2 34 16 0 9 -4 19 -9 21 -8 2 -16 29 -20 71 -1 8 -25 10
-33 1z m-326 -331 c-11 -15 -54 -62 -97 -104 -64 -64 -73 -76 -50 -71 15 2 63
39 111 84 46 44 84 74 84 66 0 -7 12 -26 26 -42 21 -22 33 -27 60 -24 18 2 31
1 28 -3 -10 -16 -302 -99 -349 -99 -10 0 18 32 69 81 47 44 95 96 107 115 12
19 24 33 26 30 3 -3 -4 -17 -15 -33z"/>
<path d="M3350 2720 c0 -16 -7 -20 -30 -20 l-30 0 0 -235 0 -235 155 0 155 0
0 -470 0 -470 80 0 80 0 0 -75 0 -75 315 0 c308 0 315 0 315 20 0 16 7 20 30
20 l30 0 0 445 0 445 45 0 45 0 0 -390 0 -390 80 0 80 0 0 -75 0 -75 310 0
c303 0 310 0 310 20 0 16 7 20 30 20 30 0 30 1 30 55 l0 55 50 0 50 0 0 -75 0
-75 309 0 310 0 4 23 4 22 2 -22 1 -23 310 0 c303 0 310 0 310 20 0 16 7 20
30 20 l30 0 0 525 0 525 45 0 45 0 0 -470 0 -470 80 0 80 0 0 -75 0 -75 315 0
c308 0 315 0 315 20 0 16 7 20 30 20 l30 0 0 445 0 445 125 0 c118 0 125 1
125 20 0 16 7 20 30 20 l30 0 0 60 0 60 45 0 45 0 0 -470 0 -470 80 0 80 0 0
-75 0 -75 315 0 c308 0 315 0 315 20 0 16 7 20 30 20 l30 0 0 445 0 445 45 0
45 0 0 -390 0 -390 80 0 80 0 0 -75 0 -75 699 0 700 0 4 23 4 22 2 -22 1 -23
310 0 c303 0 310 0 310 20 0 16 7 20 30 20 30 0 30 1 30 55 l0 55 50 0 50 0 0
-75 0 -75 255 0 c248 0 255 1 255 20 0 16 7 20 30 20 l30 0 0 625 c0 618 0
625 -20 625 -18 0 -20 7 -20 80 l0 80 -80 0 -80 0 0 75 0 75 -3205 0 c-3198 0
-3205 0 -3205 -20 0 -16 -7 -20 -30 -20 -30 0 -30 -1 -30 -55 l0 -55 -45 0
-45 0 0 75 0 75 -940 0 c-933 0 -940 0 -940 -20z m1030 -235 l0 -55 -125 0
c-118 0 -125 -1 -125 -20 0 -16 -7 -20 -30 -20 l-30 0 0 -450 0 -450 -125 0
-125 0 0 470 0 470 -155 0 -155 0 0 55 0 55 435 0 435 0 0 -55z m630 -255 l0
-310 80 0 c73 0 80 2 80 20 0 16 7 20 30 20 30 0 30 1 30 55 l0 55 45 0 45 0
0 -75 0 -75 80 0 c73 0 80 2 80 20 0 16 7 20 30 20 l30 0 0 290 0 290 125 0
125 0 0 -525 0 -525 -125 0 -125 0 0 80 0 80 -80 0 -80 0 0 75 0 75 -80 0
c-73 0 -80 -2 -80 -20 0 -16 -7 -20 -30 -20 -30 0 -30 -1 -30 -55 l0 -55 -45
0 c-38 0 -45 -3 -45 -20 0 -16 -7 -20 -30 -20 l-30 0 0 -60 0 -60 -125 0 -125
0 0 525 0 525 125 0 125 0 0 -310z m1410 -215 l0 -525 -125 0 -125 0 0 525 0
525 125 0 125 0 0 -525z m1240 470 l0 -55 -125 0 c-118 0 -125 -1 -125 -20 0
-16 -7 -20 -30 -20 l-30 0 0 -450 0 -450 -125 0 -125 0 0 470 0 470 -155 0
-155 0 0 55 0 55 435 0 435 0 0 -55z m1250 0 l0 -55 -125 0 c-118 0 -125 -1
-125 -20 0 -16 -7 -20 -30 -20 l-30 0 0 -450 0 -450 -125 0 -125 0 0 470 0
470 -155 0 -155 0 0 55 0 55 435 0 435 0 0 -55z m1410 0 l0 -55 -360 0 c-353
0 -360 0 -360 -20 0 -16 -7 -20 -30 -20 l-30 0 0 -160 0 -160 310 0 310 0 0
-55 0 -55 -280 0 c-273 0 -280 0 -280 -20 0 -16 -7 -20 -30 -20 l-30 0 0 -160
0 -160 390 0 390 0 0 -55 0 -55 -515 0 -515 0 0 525 0 525 515 0 515 0 0 -55z
m1250 -20 l0 -75 80 0 80 0 0 -135 0 -135 -50 0 c-43 0 -50 -3 -50 -20 0 -16
-7 -20 -30 -20 l-30 0 0 -80 0 -80 80 0 80 0 0 -215 0 -215 -125 0 -125 0 0
235 0 235 -235 0 c-228 0 -235 -1 -235 -20 0 -16 -7 -20 -30 -20 l-30 0 0
-215 0 -215 -125 0 -125 0 0 525 0 525 435 0 435 0 0 -75z"/>
<path d="M11010 2410 c0 -16 -7 -20 -30 -20 l-30 0 0 -160 0 -160 235 0 c228
0 235 1 235 20 0 16 7 20 30 20 l30 0 0 160 0 160 -235 0 c-228 0 -235 -1
-235 -20z"/>
</g>
</svg>
